<svg width="24" height="24" viewBox="0 0 24 24" fill="none" xmlns="http://www.w3.org/2000/svg">
<g clip-path="url(#clip0_238_420)">
<path d="M12.6 4.69925C12.522 4.7001 12.4447 4.68558 12.3723 4.65653C12.3 4.62747 12.2341 4.58446 12.1784 4.52993C12.1227 4.4754 12.0782 4.41043 12.0476 4.33873C12.017 4.26703 12.0008 4.19001 12 4.11205C12 1.84005 13.8816 5.4318e-05 16.1984 5.4318e-05C16.2764 -0.00100249 16.3539 0.0133709 16.4263 0.0423482C16.4987 0.0713255 16.5647 0.114335 16.6205 0.168904C16.6762 0.223473 16.7207 0.288525 16.7512 0.360321C16.7817 0.432116 16.7978 0.509239 16.7984 0.587254C16.7984 2.85925 14.9184 4.69925 12.6 4.69925Z" fill="black"/>
<path d="M12.6 4.69925C12.5221 4.7001 12.4447 4.68558 12.3724 4.65653C12.3 4.62747 12.2341 4.58446 12.1784 4.52993C12.1227 4.4754 12.0783 4.41043 12.0476 4.33873C12.017 4.26703 12.0009 4.19001 12 4.11205C12 1.84005 13.8816 5.4318e-05 16.1984 5.4318e-05C16.2764 -0.00100249 16.3539 0.0133709 16.4263 0.0423482C16.4988 0.0713255 16.5648 0.114335 16.6205 0.168904C16.6763 0.223473 16.7207 0.288525 16.7512 0.360321C16.7818 0.432116 16.7978 0.509239 16.7984 0.587254C16.7984 2.85925 14.9184 4.69925 12.6 4.69925ZM21.36 17.0689C21.592 17.2385 21.6672 17.5489 21.536 17.8017C19.424 21.9393 17.7392 24.0001 16.2 24.0001C15.4832 24.0001 14.7792 23.7729 14.0928 23.3313C13.6002 23.015 13.0297 22.841 12.4443 22.8286C11.859 22.8161 11.2817 22.9657 10.776 23.2609C9.94402 23.7489 9.15202 24.0001 8.40002 24.0001C6.13602 24.0001 2.40002 17.1729 2.40002 13.4273C2.40002 9.42726 4.54242 6.37765 7.80002 6.37765C9.33282 6.37765 10.656 6.59845 11.768 7.04805C12.2384 7.23685 12.7712 7.22405 13.2304 7.00805C14.1328 6.58245 15.3232 6.37765 16.7984 6.37765C18.6016 6.37765 20.1744 7.25765 21.48 8.96165C21.5273 9.0231 21.5617 9.0934 21.5812 9.1684C21.6008 9.24339 21.6051 9.32154 21.5939 9.39823C21.5827 9.47491 21.5563 9.54858 21.5161 9.61485C21.4759 9.68113 21.4228 9.73866 21.36 9.78405C19.9024 10.8561 19.2 12.0577 19.2 13.4273C19.2 14.7953 19.9024 15.9985 21.36 17.0689Z" fill="black"/>
<path d="M21.36 17.0691C21.592 17.2387 21.6672 17.5491 21.536 17.8019C19.424 21.9395 17.7392 24.0003 16.2 24.0003C15.4832 24.0003 14.7792 23.7731 14.0928 23.3315C13.6002 23.0152 13.0297 22.8413 12.4443 22.8288C11.859 22.8164 11.2817 22.966 10.776 23.2611C9.94402 23.7491 9.15202 24.0003 8.40002 24.0003C6.13602 24.0003 2.40002 17.1731 2.40002 13.4275C2.40002 9.42753 4.54242 6.37793 7.80002 6.37793C9.33282 6.37793 10.656 6.59873 11.768 7.04833C12.2384 7.23713 12.7712 7.22433 13.2304 7.00833C14.1328 6.58273 15.3232 6.37793 16.7984 6.37793C18.6016 6.37793 20.1744 7.25793 21.48 8.96193C21.5273 9.02338 21.5617 9.09368 21.5812 9.16867C21.6008 9.24366 21.6051 9.32181 21.5939 9.3985C21.5827 9.47519 21.5563 9.54885 21.5161 9.61513C21.4759 9.6814 21.4228 9.73894 21.36 9.78433C19.9024 10.8563 19.2 12.0579 19.2 13.4275C19.2 14.7955 19.9024 15.9987 21.36 17.0691Z" fill="black"/>
</g>
<defs>
<clipPath id="clip0_238_420">
<rect width="24" height="24" fill="white"/>
</clipPath>
</defs>
</svg>
