<svg width="310" height="326" viewBox="0 0 310 326" fill="none" xmlns="http://www.w3.org/2000/svg">
<path d="M40.5342 299.567C40.8325 299.7 41.1469 299.796 41.4797 299.849C41.1609 299.764 40.8479 299.664 40.5342 299.567Z" fill="#2D2A2A"/>
<path d="M310 216.581C309.972 212.328 309.292 208.102 308.345 203.974C307.367 199.851 306.044 195.804 304.456 191.856C302.866 187.906 300.899 184.113 298.719 180.445C294.33 173.065 288.679 166.717 283.463 160.388C280.865 157.202 278.27 154.09 276.083 150.704L274.384 148.202L273.533 146.953L272.764 145.645C271.754 143.891 270.681 142.178 269.72 140.394L266.912 134.989L264.357 129.434C262.718 125.692 261.17 121.9 259.727 118.047C256.772 110.369 254.261 102.476 251.568 94.6068C250.235 90.6648 248.934 86.7066 247.52 82.7765C246.833 80.8085 246.076 78.8538 245.358 76.894C244.645 74.9319 243.877 72.9838 243.09 71.0454C241.327 66.743 239.451 62.4762 237.388 58.3122C237.192 57.7379 236.999 57.1628 236.797 56.5907C230.301 38.131 221.559 13.1708 183.23 3.22196C156.801 -3.63758 128.712 1.72024 102.043 7.5547C83.8009 11.5455 65.588 16.6287 49.1899 25.6317C40.7365 30.273 32.7134 36.0387 26.8129 43.7131C20.9125 51.3875 17.2857 61.158 18.2914 70.8212C18.9752 77.3921 21.7085 83.547 24.5062 89.5199C24.9072 90.3762 25.3111 91.2318 25.7157 92.0874C24.4601 90.4502 23.2191 88.8338 22.0588 87.1914C20.6369 85.2101 19.3219 83.2273 18.2041 81.1475C15.9209 77.0316 14.3509 72.5945 14.1882 68.1685C13.9815 63.7692 15.4892 59.338 17.8105 55.1792C18.962 53.0913 20.3276 51.0789 21.7686 49.0842C23.2038 47.0822 24.7533 45.1578 26.3709 43.2823C29.5696 39.4877 33.1421 35.998 36.9038 32.6089C32.4062 34.9218 28.2327 37.892 24.3494 41.2344C22.4253 42.9263 20.5878 44.7271 18.8294 46.6129C17.9417 47.547 17.0944 48.5336 16.2735 49.5513C15.4518 50.5675 14.6477 51.614 13.9133 52.7227C12.4232 54.9217 11.1089 57.3182 10.1612 59.9309C9.69358 61.2387 9.2963 62.5902 9.03976 63.986C8.79788 65.3842 8.64909 66.8119 8.64103 68.2322C8.61391 71.0765 9.10866 73.8757 9.88781 76.5187C10.6904 79.161 11.7943 81.6574 13.0755 84.0111C14.3619 86.3639 15.8594 88.5725 17.3979 90.6604C18.9628 92.7343 20.5731 94.723 22.1864 96.6555C25.4173 100.523 28.5713 104.243 31.1353 108.324C33.7153 112.408 35.8776 116.826 37.444 121.503C38.2649 123.835 38.9356 126.226 39.4802 128.666C38.8564 138.887 35.4539 148.938 29.3908 157.157C24.1786 164.221 17.2974 169.881 11.9761 176.862C5.96934 184.742 2.07212 194.246 0.804803 204.107C2.52289 194.454 8.8206 186.282 15.712 179.371C22.6034 172.46 30.3356 166.313 36.1708 158.472C38.3133 155.593 40.1706 152.501 41.7282 149.261C41.5845 150.171 41.4189 151.08 41.2078 151.981C39.3739 159.806 35.0274 166.769 30.513 173.394C19.9046 188.96 7.74167 204.033 2.36311 222.131C-3.01472 240.228 0.468367 262.749 16.0968 273.141C12.83 264.435 14.3575 254.489 18.1931 246.023C22.0295 237.558 27.9871 230.286 33.8766 223.124C25.4254 235.597 18.2657 249.77 18.2071 264.882C18.1499 279.662 26.6326 295.251 40.5342 299.567C38.4489 298.64 37.1904 295.93 36.4244 293.679C34.0591 286.732 32.4429 279.444 32.5924 272.099C32.7287 265.431 34.4029 258.698 37.9497 253.096C37.8053 258.802 38.5764 264.588 40.1369 270.15C42.5726 278.793 46.947 286.964 52.9376 293.758C58.9223 300.557 66.458 305.889 74.6798 309.33C81.8475 312.322 89.587 313.915 97.1909 313.681C97.8425 314.005 98.4948 314.328 99.1486 314.641C127.902 328.426 221.072 336.747 263.265 294.277C296.708 260.615 296.828 226.368 294.072 211.852C297.285 217.617 300.067 223.692 301.53 230.14C302.993 236.588 304.513 242.612 302.435 248.887C306.446 242.638 308.242 235.266 308.33 227.788C308.869 226.21 309.264 224.574 309.545 222.914C309.875 220.827 310.01 218.704 310 216.581ZM76.65 305.121C69.3415 301.149 62.7616 295.986 57.3149 289.821C51.8726 283.651 47.5539 276.453 44.4893 268.664C43.0527 265.026 41.9078 261.26 41.0245 257.394C49.936 281.373 70.8764 299.833 93.7422 311.914C87.7208 310.289 81.9949 308.036 76.65 305.121ZM308.334 226.52C308.27 221.916 307.569 217.294 306.334 212.889C302.977 200.914 296.096 190.273 288.682 180.332C281.268 170.391 273.193 160.893 266.922 150.179C259.286 137.132 254.61 122.825 250.72 108.159C251.922 112.106 253.188 116.045 254.53 119.972C257.304 127.907 260.494 135.774 264.583 143.245C265.596 145.114 266.74 146.918 267.814 148.756L268.633 150.127L269.539 151.447L271.356 154.083C272.551 155.85 273.842 157.556 275.176 159.203C276.509 160.849 277.859 162.465 279.237 164.039C281.988 167.189 284.757 170.259 287.42 173.356C290.077 176.465 292.596 179.616 294.873 182.948C297.142 186.291 299.152 189.816 300.955 193.457C302.759 197.097 304.31 200.88 305.575 204.769C306.89 208.643 307.875 212.622 308.377 216.684C308.773 219.927 308.803 223.239 308.334 226.52Z" fill="#2D2A2A"/>
<path d="M169.248 163.888C172.418 160.688 172.418 155.498 169.248 152.297C166.078 149.096 160.939 149.096 157.769 152.297C154.599 155.498 154.599 160.688 157.769 163.888C160.939 167.089 166.078 167.089 169.248 163.888Z" fill="white"/>
<path d="M104.553 32.9102C99.2272 34.6021 94.3873 37.6226 90.2761 41.3898C86.1509 45.1579 82.6861 49.6186 79.7902 54.3984C76.8854 59.1797 74.5457 64.3021 72.7309 69.5933C71.8447 72.2437 71.0077 74.9289 70.7863 77.68C70.5437 80.4281 71.1169 83.174 71.7179 85.911C72.0177 87.2832 72.3226 88.668 72.533 90.0794C72.7338 91.4946 72.8452 92.9267 72.8233 94.3559C72.8211 95.7858 72.7074 97.2128 72.5051 98.6235C72.3153 100.037 72.0324 101.435 71.6879 102.813C71.0091 105.574 70.0724 108.256 69.0301 110.882C67.9776 113.499 66.8649 116.106 65.4671 118.594C64.0708 121.069 62.3696 123.448 60.1289 125.308L59.2669 125.974L58.3595 126.58C57.7408 126.952 57.0665 127.301 56.4831 127.593C55.9003 127.899 55.4188 128.248 55.1996 128.691C54.9739 129.13 54.9489 129.756 55.0098 130.425C55.3689 135.778 59.3314 140.746 64.4322 142.225L64.707 142.305L64.8346 142.566C65.9274 144.801 66.4948 147.289 66.4544 149.789C66.4156 152.28 65.7244 154.82 64.2614 156.901L64.3149 156.208C66.206 160.04 69.209 163.314 72.846 165.509L73.5049 165.907L73.0358 166.534C72.4157 167.361 71.899 168.352 71.4291 169.348C70.963 170.352 70.543 171.388 70.1743 172.432C69.4882 174.374 69.6436 176.678 71.1389 178.005C71.8682 178.719 72.8423 179.304 73.749 180.135C74.6711 180.947 75.4128 182.221 75.5345 183.506C75.7002 184.791 75.4773 186.002 75.234 187.136C74.9804 188.27 74.6762 189.355 74.4974 190.418C73.8025 194.619 75.8651 199.105 79.2851 201.611C80.1398 202.241 81.0809 202.744 82.0719 203.097C83.068 203.433 84.125 203.643 85.1929 203.728C87.3383 203.906 89.5321 203.61 91.7098 203.194C96.0783 202.287 100.492 201.272 104.88 200.316L111.472 198.862C113.67 198.378 115.905 197.892 118.214 197.723C120.506 197.564 122.918 197.705 125.138 198.603C127.332 199.467 129.367 200.98 130.571 203.142C130.856 203.684 131.114 204.251 131.266 204.852C131.435 205.442 131.551 205.958 131.696 206.515C131.965 207.612 132.256 208.704 132.562 209.792C133.157 211.972 133.815 214.138 134.487 216.299C137.182 224.941 140.321 233.472 142.821 242.228C143.449 244.416 144.019 246.622 144.556 248.835C145.034 251.066 145.623 253.255 145.849 255.585C145.954 256.745 145.935 257.944 145.692 259.107C145.456 260.268 145.034 261.37 144.533 262.411C143.513 264.493 142.284 266.383 141.145 268.345C131.816 283.898 121.598 298.896 110.651 313.314C121.394 298.737 131.317 283.562 140.468 267.937C141.586 265.973 142.811 264.044 143.769 262.042C144.241 261.038 144.625 260 144.832 258.932C145.045 257.867 145.055 256.77 144.947 255.671C144.718 253.476 144.11 251.265 143.618 249.066C143.066 246.873 142.481 244.688 141.838 242.518C139.284 233.832 136.059 225.35 133.301 216.679C132.619 214.509 131.951 212.333 131.345 210.136C131.035 209.04 130.737 207.94 130.463 206.833C130.321 206.293 130.184 205.702 130.036 205.202C129.909 204.701 129.69 204.229 129.449 203.771C128.434 201.951 126.64 200.595 124.664 199.827C122.686 199.031 120.483 198.897 118.309 199.053C116.126 199.218 113.95 199.694 111.757 200.183L105.17 201.657C100.768 202.628 96.4111 203.644 91.9707 204.58C89.7396 205.011 87.43 205.339 85.08 205.154C83.9066 205.064 82.7404 204.839 81.6021 204.458C80.4704 204.06 79.4024 203.491 78.4386 202.785C76.5094 201.372 74.9819 199.439 74.0143 197.248C73.0453 195.063 72.6488 192.575 73.06 190.173C73.263 188.996 73.5782 187.894 73.8216 186.814C74.0598 185.74 74.2372 184.671 74.1082 183.693C73.9989 182.703 73.5328 181.887 72.7807 181.194C72.028 180.488 71.048 179.899 70.1538 179.034C69.7103 178.604 69.294 178.079 69.0015 177.492C68.7061 176.908 68.531 176.277 68.4415 175.648C68.2656 174.384 68.4525 173.124 68.8549 171.96C69.2441 170.866 69.6803 169.8 70.1721 168.749C70.6734 167.7 71.2041 166.665 71.9444 165.68L72.1343 166.704C68.2744 164.357 65.1087 160.885 63.1114 156.81L62.9325 156.446L63.1649 156.117C64.4542 154.295 65.0889 152.031 65.1307 149.762C65.1754 147.489 64.6601 145.193 63.6655 143.147L64.0679 143.487C58.4137 141.804 54.1603 136.429 53.7571 130.51C53.7051 129.793 53.6772 128.945 54.0884 128.113C54.5172 127.284 55.2671 126.821 55.904 126.483C56.5703 126.153 57.1339 125.856 57.7174 125.516L58.5574 124.966L59.36 124.356C61.4534 122.65 63.1004 120.407 64.4739 118.019C65.8483 115.622 66.9712 113.058 68.0362 110.474C69.0887 107.889 70.0314 105.259 70.7181 102.563C71.067 101.218 71.3544 99.8566 71.5508 98.4836C71.7597 97.1129 71.8814 95.7288 71.8953 94.3455C71.9884 91.5686 71.4782 88.8427 70.8816 86.0923C70.3055 83.3531 69.7279 80.4999 70.0057 77.6126C70.2652 74.7417 71.1389 72.0128 72.0742 69.3602C73.9784 64.0468 76.406 58.9228 79.3958 54.1512C82.3768 49.3818 85.9237 44.9432 90.1207 41.2144C92.2089 39.3412 94.4892 37.6907 96.8963 36.2667C99.3129 34.856 101.889 33.7295 104.553 32.9102Z" fill="white"/>
<path d="M161.035 151.716C162.656 153.475 164.309 155.268 166.36 156.187C168.404 157.104 170.727 157.22 172.925 156.757C174.023 156.514 175.113 156.188 176.132 155.69C177.133 155.239 178.032 154.527 178.934 153.783C180.713 152.274 182.35 150.563 183.844 148.739C186.847 145.1 189.324 140.998 191.111 136.595C191.992 134.389 192.737 132.119 193.257 129.788C193.779 127.458 194.105 125.077 194.245 122.679C194.339 127.488 193.473 132.324 191.855 136.885C190.224 141.448 187.799 145.718 184.81 149.533C183.304 151.434 181.654 153.222 179.816 154.834C178.898 155.623 177.915 156.428 176.746 156.979C175.628 157.534 174.441 157.967 173.207 158.192C170.766 158.681 168.075 158.454 165.859 157.177C164.745 156.559 163.823 155.681 163.047 154.739C162.288 153.775 161.619 152.773 161.035 151.716Z" fill="white"/>
<path d="M110.713 16.0234C106.939 22.9733 104.771 30.7595 104.281 38.6278C103.799 46.4954 104.971 54.4644 107.826 61.7739C110.688 69.082 115.243 75.6773 120.918 81.0233C126.599 86.3604 133.392 90.5103 140.768 92.9098L140.11 93.9889C135.805 89.6147 132.494 84.2621 130.442 78.455C128.386 72.6509 127.593 66.3724 128.268 60.2241L128.618 57.0408L129.657 60.079C133.656 71.7776 140.614 82.4769 149.515 91.0069C153.991 95.2486 159.154 98.6991 164.464 101.88C169.775 105.072 175.281 107.98 180.559 111.324C185.832 114.65 190.948 118.387 195.217 123.029L196.79 124.789C197.304 125.384 197.764 126.026 198.253 126.642C199.255 127.858 200.078 129.205 200.967 130.503C202.606 133.188 204.127 135.956 205.3 138.879C207.761 144.678 209.182 150.875 209.845 157.114C210.512 163.362 210.23 169.687 209.234 175.864C209.616 172.757 209.944 169.64 209.927 166.511C209.994 164.948 209.883 163.386 209.85 161.825C209.817 161.045 209.729 160.268 209.672 159.489C209.602 158.711 209.56 157.931 209.437 157.16C208.667 150.969 207.126 144.863 204.61 139.178C203.42 136.307 201.888 133.597 200.246 130.974C199.356 129.708 198.534 128.392 197.535 127.21C197.048 126.61 196.59 125.986 196.079 125.407L194.515 123.699C190.278 119.196 185.206 115.575 179.94 112.339C174.659 109.106 169.176 106.18 163.809 103.001C158.453 99.8204 153.188 96.3359 148.588 92.012C144.004 87.6971 140.001 82.7893 136.55 77.5217C133.133 72.2328 130.27 66.5537 128.3 60.5298L129.688 60.3847C129.015 66.3021 129.755 72.3704 131.724 77.9947C133.688 83.6219 136.876 88.8198 141.028 93.0704L142.894 94.9807L140.37 94.1503C132.811 91.6627 125.863 87.3907 120.14 81.8545C114.41 76.3301 109.849 69.5572 107.022 62.0892C104.183 54.6243 103.13 46.5191 103.781 38.5908C104.421 30.664 106.747 22.8674 110.713 16.0234Z" fill="white"/>
<path d="M168.757 106.802C167.074 109.763 165.569 112.785 164.323 115.908C163.696 117.477 163.144 119.014 163.02 120.602C162.958 121.384 162.999 122.156 163.216 122.84C163.417 123.535 163.851 124.086 164.397 124.508C164.961 124.932 165.715 125.223 166.515 125.599C167.334 125.99 168.105 126.492 168.786 127.102C169.464 127.714 170.054 128.445 170.493 129.279C170.929 130.112 171.174 131.089 171.103 132.056C171.026 133.021 170.672 133.935 170.156 134.683C169.644 135.435 169.026 136.058 168.407 136.646C167.167 137.809 165.847 138.856 165.056 140.384C165.544 138.713 166.818 137.412 167.889 136.141C168.992 134.893 169.962 133.506 169.96 132.01C169.952 130.532 169.069 129.145 167.876 128.16C167.279 127.665 166.623 127.233 165.913 126.91C165.189 126.573 164.338 126.283 163.532 125.701C162.744 125.096 162.113 124.224 161.851 123.274C161.572 122.33 161.533 121.369 161.642 120.462C161.866 118.653 162.528 116.964 163.28 115.442C164.753 112.342 166.576 109.413 168.757 106.802Z" fill="white"/>
<path d="M167.458 136.931C169.417 137.992 171.666 137.792 173.524 136.995C175.395 136.161 176.958 134.709 178.36 133.102C179.791 131.496 181.1 129.799 182.07 127.918C183.016 126.046 183.582 123.925 183.071 121.732C183.622 122.703 183.853 123.868 183.833 125.021C183.801 126.178 183.532 127.323 183.114 128.391C182.279 130.541 180.918 132.405 179.451 134.088C178.694 134.919 177.891 135.733 176.974 136.433C176.049 137.117 175.042 137.724 173.919 138.074C172.807 138.439 171.621 138.545 170.48 138.379C169.346 138.202 168.242 137.727 167.458 136.931Z" fill="white"/>
<path d="M202.252 138.519C202.356 141.321 202.236 144.132 201.911 146.924C201.552 149.712 200.977 152.467 200.273 155.187C198.827 160.621 196.796 165.875 194.577 171.023C190.111 181.3 184.825 191.231 181.529 201.888C179.915 207.205 178.788 212.69 178.692 218.227C178.553 223.76 179.531 229.285 181.551 234.417C185.562 244.68 193.553 253.37 203.534 257.855L202.648 258.943C199.884 254.947 198.518 250.078 198.529 245.255C198.536 240.432 199.923 235.574 202.695 231.6L204.12 229.558L203.905 232.043C203.216 239.98 204.55 248.051 207.445 255.469C210.317 262.905 214.754 269.739 220.388 275.367C226.029 281.003 232.814 285.435 240.117 288.614C247.433 291.787 255.298 293.667 263.264 294.276C255.279 293.914 247.341 292.167 239.905 289.126C232.466 286.099 225.543 281.684 219.743 276.034C213.944 270.384 209.337 263.486 206.307 255.925C203.3 248.362 201.906 240.094 202.576 231.929L203.785 232.372C201.201 236.106 199.905 240.697 199.918 245.254C199.925 249.812 201.24 254.392 203.833 258.104L205.34 260.262L202.947 259.193C192.567 254.552 184.402 245.504 180.296 234.915C178.233 229.618 177.245 223.88 177.412 218.2C177.498 215.361 177.775 212.526 178.315 209.744C178.85 206.962 179.568 204.223 180.428 201.536C183.906 190.776 189.326 180.907 193.902 170.719C196.213 165.633 198.34 160.453 199.887 155.079C200.641 152.389 201.269 149.66 201.683 146.892C202.083 144.124 202.28 141.324 202.252 138.519Z" fill="white"/>
<path d="M143.576 27.9453C146.804 41.3817 152.714 54.1134 160.786 65.2206C168.813 76.3544 178.981 85.9221 190.637 93.0295L189.816 93.7282L182.299 74.8341L180.647 70.682L183.388 74.2036C189.085 81.5227 195.681 88.0921 202.068 94.8828C208.431 101.675 214.684 108.773 219.341 116.989C220.56 119.003 221.59 121.123 222.637 123.231L224.072 126.458C224.552 127.533 224.934 128.65 225.37 129.743C227.001 134.158 228.386 138.678 229.293 143.304C230.22 147.924 230.83 152.608 231.063 157.317C231.253 162.027 231.096 166.748 230.584 171.433L230.111 174.935C229.938 176.1 229.685 177.253 229.477 178.412C229.06 180.732 228.46 183.01 227.855 185.277C226.622 189.811 225.139 194.251 223.726 198.699C222.326 203.149 220.966 207.609 220.023 212.161C219.535 214.432 219.161 216.727 218.927 219.033C218.837 220.189 218.726 221.344 218.654 222.501L218.611 225.981C218.705 230.623 219.342 235.252 220.473 239.757C221.597 244.263 223.196 248.659 225.28 252.816C229.481 261.108 235.501 268.488 242.93 274.093C235.365 268.669 229.193 261.341 224.827 253.053C220.5 244.737 218.016 235.426 217.737 226L217.747 222.465C217.808 221.288 217.91 220.113 217.989 218.936C218.204 216.589 218.561 214.257 219.033 211.953C219.943 207.335 221.269 202.826 222.63 198.35C224.002 193.877 225.428 189.432 226.646 184.943C227.237 182.694 227.822 180.444 228.224 178.159C228.425 177.017 228.671 175.882 228.837 174.734L229.293 171.284C231.373 152.824 227.319 133.752 218.088 117.726C213.546 109.647 207.403 102.617 201.081 95.825C194.739 89.0351 188.129 82.4153 182.389 74.9911L183.478 74.3605L190.869 93.3049L191.493 94.905L190.048 94.0036C178.329 86.6948 168.167 76.9398 160.2 65.6454C152.275 54.3273 146.48 41.4646 143.576 27.9453Z" fill="white"/>
<path d="M189.426 23.3672C192.9 34.0525 197.537 44.3048 202.928 54.1211C208.249 63.9812 214.167 73.4978 220.071 83.0263C226.002 92.5362 231.801 102.165 236.992 112.145C239.573 117.142 241.98 122.235 244.151 127.436C246.327 132.634 248.251 137.95 249.776 143.391C251.298 148.831 252.457 154.382 253.162 159.998C253.865 165.616 253.988 171.304 253.72 176.945C253.18 188.244 251.2 199.345 250.017 210.488C249.443 216.059 249.024 221.657 249.245 227.245C249.447 232.827 250.242 238.396 251.878 243.73C254.963 254.47 261.952 263.954 271.022 270.442C266.381 267.337 262.269 263.413 258.897 258.915C255.53 254.42 252.834 249.362 251.192 243.949C249.46 238.567 248.593 232.926 248.319 227.284C248.028 221.633 248.385 215.983 248.894 210.375C249.907 199.151 251.924 188.065 252.386 176.883C252.628 171.3 252.485 165.71 251.771 160.173C251.054 154.638 249.884 149.169 248.366 143.797C246.88 138.415 244.996 133.144 242.859 127.98C240.727 122.814 238.356 117.745 235.809 112.765C230.701 102.806 224.895 93.2253 219.113 83.6213C213.326 74.0218 207.5 64.4193 202.296 54.4624C199.698 49.4827 197.27 44.4099 195.101 39.2267C192.923 34.0488 191.004 28.759 189.426 23.3672Z" fill="white"/>
<path d="M70.2256 32.5518C66.4002 34.5879 62.5932 36.6632 59.0316 39.1056C55.4577 41.5162 52.094 44.2495 49.2252 47.438C46.3651 50.6206 44.0555 54.2954 42.5793 58.2995C41.098 62.2814 40.406 66.6097 41.0217 70.7959C41.5729 74.9946 43.5446 78.8648 46.0404 82.3456C48.4966 85.8686 51.4226 89.12 53.917 92.7348C58.9767 99.889 62.8336 107.881 65.3323 116.243C62.2927 108.066 58.1367 100.36 52.9927 93.4158C50.4339 89.9416 47.5056 86.7316 44.9131 83.1635C43.6209 81.3805 42.4408 79.4865 41.4996 77.4519C40.5409 75.4298 39.8981 73.2316 39.5712 71.0023C38.9438 66.5201 39.6921 61.9491 41.2863 57.8014C42.9018 53.6507 45.3434 49.8412 48.3918 46.6542C51.4175 43.4428 54.9453 40.7872 58.6476 38.4987C62.3733 36.2391 66.2573 34.2881 70.2256 32.5518Z" fill="white"/>
<path d="M54.3758 154.363C54.2482 157.888 53.3892 161.37 52.1578 164.687C50.8817 167.995 49.1922 171.13 47.2732 174.098C43.4185 180.043 38.6872 185.273 34.3626 190.736C29.9743 196.146 26.2156 202.025 23.2097 208.322C21.7034 211.464 20.379 214.702 19.2575 218.015C18.0994 221.319 17.1949 224.71 16.4158 228.14C17.3745 221.171 19.292 214.295 22.1718 207.836C23.5887 204.595 25.2569 201.468 27.093 198.445C28.9482 195.432 31.0364 192.567 33.2199 189.809C37.6126 184.311 42.3521 179.162 46.3284 173.453C48.2965 170.589 50.0864 167.595 51.4981 164.41C52.9303 161.236 53.9184 157.854 54.3758 154.363Z" fill="white"/>
<path d="M57.6866 177.332C58.7861 184.249 58.7377 191.359 57.6426 198.307C56.5212 205.268 54.1661 211.918 52.868 218.743C51.4871 225.539 51.644 232.608 53.7029 239.2C55.6819 245.793 59.3915 251.843 64.3493 256.545L63.1861 257.325C60.6962 250.599 61.6395 242.77 65.5118 236.786L66.6978 234.953L66.7726 237.138C66.9778 243.142 68.262 249.108 70.4909 254.686C72.7331 260.256 75.8438 265.495 79.8217 270C83.7827 274.52 88.58 278.273 93.8281 281.195C99.0857 284.111 104.856 286.101 110.81 287.071C104.815 286.372 98.9501 284.508 93.5473 281.732C88.1343 278.964 83.2263 275.18 79.0924 270.666C74.9753 266.139 71.6256 260.875 69.3218 255.167C67.0049 249.468 65.6496 243.36 65.4019 237.191L66.6626 237.543C64.8602 240.353 63.7542 243.609 63.3928 246.939C63.0373 250.269 63.406 253.683 64.5341 256.824L65.5734 259.718L63.3708 257.604C58.2473 252.686 54.4564 246.406 52.4517 239.585C51.4351 236.181 50.8377 232.644 50.7505 229.087C50.7263 228.198 50.7094 227.308 50.7695 226.42C50.7915 225.53 50.8758 224.646 50.9608 223.763C51.1602 222 51.4549 220.255 51.8126 218.528C53.2697 211.622 55.7054 205.04 56.9764 198.188C58.2796 191.344 58.4768 184.287 57.6866 177.332Z" fill="white"/>
<path d="M87.1931 220.004C88.3065 223.818 89.7974 227.471 91.6738 230.902C93.5575 234.325 95.796 237.54 98.3783 240.446C100.941 243.371 103.845 245.987 106.994 248.272C110.153 250.549 113.574 252.467 117.196 254.026C113.374 253.051 109.711 251.382 106.355 249.229C102.99 247.083 99.9439 244.427 97.284 241.43C94.6438 238.414 92.3833 235.052 90.6608 231.429C88.931 227.816 87.7128 223.95 87.1931 220.004Z" fill="white"/>
<path d="M129.055 287.319C135.499 287.657 141.935 287.09 148.186 285.746C154.433 284.38 160.503 282.231 166.202 279.334C171.912 276.461 177.254 272.843 182.08 268.611C186.891 264.363 191.198 259.5 194.794 254.091C191.686 259.802 187.61 265.007 182.845 269.469C178.094 273.951 172.672 277.703 166.857 280.657C161.031 283.585 154.806 285.72 148.406 286.875C142.015 288.05 135.446 288.228 129.055 287.319Z" fill="white"/>
<path d="M65.0237 138.561C65.772 138.692 66.5131 138.865 67.2402 139.085C67.968 139.303 68.6856 139.557 69.3885 139.848C70.7959 140.427 72.1563 141.127 73.4375 141.953L72.9801 142.098C73.5731 140.898 73.8084 139.495 73.6273 138.081C74.1646 139.407 74.1455 140.993 73.568 142.37L73.4331 142.691L73.1098 142.515C71.7949 141.798 70.4697 141.11 69.121 140.461L67.0841 139.507L65.0237 138.561Z" fill="white"/>
</svg>
